<svg xmlns="http://www.w3.org/2000/svg" xmlns:xlink="http://www.w3.org/1999/xlink" width="500" zoomAndPan="magnify" viewBox="0 0 375 374.999991" height="500" preserveAspectRatio="xMidYMid meet" version="1.0"><defs><g/><clipPath id="74a4c67905"><path d="M 92.21875 163.324219 L 140.433594 163.324219 L 140.433594 211.636719 L 92.21875 211.636719 Z M 92.21875 163.324219 " clip-rule="nonzero"/></clipPath><clipPath id="e55e9adf04"><path d="M 116.296875 211.578125 C 109.867188 211.578125 103.816406 209.078125 99.273438 204.523438 C 94.722656 199.980469 92.21875 193.929688 92.21875 187.5 C 92.21875 181.070312 94.722656 175.019531 99.273438 170.476562 C 103.816406 165.921875 109.867188 163.421875 116.296875 163.421875 C 122.726562 163.421875 128.78125 165.921875 133.320312 170.476562 C 137.875 175.027344 140.375 181.070312 140.375 187.5 C 140.375 193.929688 137.875 199.980469 133.320312 204.523438 C 128.78125 209.078125 122.726562 211.578125 116.296875 211.578125 Z M 116.296875 164.863281 C 110.253906 164.863281 104.566406 167.222656 100.292969 171.496094 C 96.019531 175.769531 93.664062 181.457031 93.664062 187.5 C 93.664062 193.542969 96.019531 199.230469 100.292969 203.503906 C 104.566406 207.777344 110.253906 210.136719 116.296875 210.136719 C 122.339844 210.136719 128.027344 207.777344 132.300781 203.503906 C 136.574219 199.230469 138.933594 193.542969 138.933594 187.5 C 138.933594 181.457031 136.574219 175.769531 132.300781 171.496094 C 128.027344 167.222656 122.339844 164.863281 116.296875 164.863281 Z M 116.296875 164.863281 " clip-rule="nonzero"/></clipPath><clipPath id="2a35015a1d"><path d="M 95.183594 166.382812 L 137.414062 166.382812 L 137.414062 208.617188 L 95.183594 208.617188 Z M 95.183594 166.382812 " clip-rule="nonzero"/></clipPath><clipPath id="52dfe3d510"><path d="M 116.296875 166.382812 C 104.636719 166.382812 95.183594 175.839844 95.183594 187.5 C 95.183594 199.160156 104.636719 208.617188 116.296875 208.617188 C 127.960938 208.617188 137.414062 199.160156 137.414062 187.5 C 137.414062 175.839844 127.960938 166.382812 116.296875 166.382812 " clip-rule="nonzero"/></clipPath></defs><rect x="-37.5" width="450" fill="#ffffff" y="-37.499999" height="449.999989" fill-opacity="1"/><rect x="-37.5" width="450" fill="#ffffff" y="-37.499999" height="449.999989" fill-opacity="1"/><rect x="-37.5" width="450" fill="#ffffff" y="-37.499999" height="449.999989" fill-opacity="1"/><g clip-path="url(#74a4c67905)"><g clip-path="url(#e55e9adf04)"><path fill="#000000" d="M 92.21875 163.421875 L 140.335938 163.421875 L 140.335938 211.539062 L 92.21875 211.539062 Z M 92.21875 163.421875 " fill-opacity="1" fill-rule="nonzero"/></g></g><g clip-path="url(#2a35015a1d)"><g clip-path="url(#52dfe3d510)"><path fill="#000000" d="M 95.183594 166.382812 L 137.414062 166.382812 L 137.414062 208.617188 L 95.183594 208.617188 Z M 95.183594 166.382812 " fill-opacity="1" fill-rule="nonzero"/></g></g><g fill="#000000" fill-opacity="1"><g transform="translate(146.96705, 196.01237)"><g><path d="M 14.03125 -12.71875 L 5.625 -12.71875 L 5.625 -9.5625 L 13.21875 -9.5625 L 13.21875 -6.375 L 5.625 -6.375 L 5.625 -3.171875 L 14.28125 -3.171875 L 14.28125 0 L 1.59375 0 L 1.59375 -15.890625 L 14.03125 -15.890625 Z M 14.03125 -12.71875 "/></g></g></g><g fill="#000000" fill-opacity="1"><g transform="translate(164.128736, 196.01237)"><g><path d="M 19.046875 0 L 15.484375 0 L 15.453125 -10.328125 L 11.640625 -1.59375 L 9.015625 -1.59375 L 5.203125 -10.328125 L 5.203125 0 L 1.59375 0 L 1.59375 -15.921875 L 6.015625 -15.921875 L 10.328125 -6.453125 L 14.640625 -15.921875 L 19.046875 -15.921875 Z M 19.046875 0 "/></g></g></g><g fill="#000000" fill-opacity="1"><g transform="translate(186.647436, 196.01237)"><g><path d="M 9.125 -16.03125 C 11.59375 -16.03125 13.644531 -15.257812 15.28125 -13.71875 C 16.914062 -12.1875 17.734375 -10.269531 17.734375 -7.96875 C 17.734375 -5.65625 16.910156 -3.71875 15.265625 -2.15625 C 13.617188 -0.59375 11.570312 0.1875 9.125 0.1875 C 6.675781 0.1875 4.632812 -0.585938 3 -2.140625 C 1.363281 -3.691406 0.546875 -5.632812 0.546875 -7.96875 C 0.546875 -10.28125 1.363281 -12.203125 3 -13.734375 C 4.632812 -15.265625 6.675781 -16.03125 9.125 -16.03125 Z M 9.171875 -12.640625 C 7.929688 -12.640625 6.867188 -12.1875 5.984375 -11.28125 C 5.109375 -10.382812 4.671875 -9.269531 4.671875 -7.9375 C 4.671875 -6.613281 5.113281 -5.492188 6 -4.578125 C 6.882812 -3.660156 7.941406 -3.203125 9.171875 -3.203125 C 10.398438 -3.203125 11.441406 -3.660156 12.296875 -4.578125 C 13.148438 -5.492188 13.578125 -6.613281 13.578125 -7.9375 C 13.578125 -9.269531 13.148438 -10.382812 12.296875 -11.28125 C 11.441406 -12.1875 10.398438 -12.640625 9.171875 -12.640625 Z M 9.171875 -12.640625 "/></g></g></g><g fill="#000000" fill-opacity="1"><g transform="translate(206.782722, 196.01237)"><g><path d="M 16.25 0 L 12.6875 0 L 5.375 -9.78125 L 5.375 0 L 1.59375 0 L 1.59375 -15.890625 L 5.15625 -15.890625 L 12.484375 -6.078125 L 12.484375 -15.890625 L 16.25 -15.890625 Z M 16.25 0 "/></g></g></g><g fill="#ffffff" fill-opacity="1"><g transform="translate(107.257154, 196.569436)"><g><path d="M 16.3125 -16.375 L 5.78125 -16.375 L 5.78125 -11.15625 L 15.21875 -11.15625 L 15.21875 -8.234375 L 5.78125 -8.234375 L 5.78125 -2.921875 L 16.640625 -2.921875 L 16.640625 0 L 2.53125 0 L 2.53125 -19.296875 L 16.3125 -19.296875 Z M 16.3125 -16.375 "/></g></g></g></svg>